<mxfile host="Electron" modified="2023-11-27T15:48:23.372Z" agent="Mozilla/5.0 (Windows NT 10.0; Win64; x64) AppleWebKit/537.36 (KHTML, like Gecko) draw.io/22.0.2 Chrome/114.0.5735.289 Electron/25.8.4 Safari/537.36" etag="Zg3ggbHLWIV34m7O5WMp" version="22.0.2" type="device">
  <diagram name="Page-1" id="RvLFdn8B-ZQLy9LdIM-J">
    <mxGraphModel dx="1506" dy="898" grid="1" gridSize="10" guides="1" tooltips="1" connect="1" arrows="1" fold="1" page="1" pageScale="1" pageWidth="1500" pageHeight="1500" math="0" shadow="0">
      <root>
        <mxCell id="0" />
        <mxCell id="1" parent="0" />
        <mxCell id="tgYWToTOFsE2OGibApD7-1" value="Hardware" style="rounded=0;whiteSpace=wrap;html=1;" vertex="1" parent="1">
          <mxGeometry x="290" y="360" width="160" height="40" as="geometry" />
        </mxCell>
        <mxCell id="tgYWToTOFsE2OGibApD7-3" value="Firmware" style="rounded=0;whiteSpace=wrap;html=1;" vertex="1" parent="1">
          <mxGeometry x="290" y="310" width="160" height="40" as="geometry" />
        </mxCell>
        <mxCell id="tgYWToTOFsE2OGibApD7-4" value="Operating system" style="rounded=0;whiteSpace=wrap;html=1;" vertex="1" parent="1">
          <mxGeometry x="290" y="260" width="160" height="40" as="geometry" />
        </mxCell>
        <mxCell id="tgYWToTOFsE2OGibApD7-5" value="Libraries" style="rounded=0;whiteSpace=wrap;html=1;" vertex="1" parent="1">
          <mxGeometry x="290" y="210" width="160" height="40" as="geometry" />
        </mxCell>
        <mxCell id="tgYWToTOFsE2OGibApD7-6" value="Application code" style="rounded=0;whiteSpace=wrap;html=1;" vertex="1" parent="1">
          <mxGeometry x="290" y="160" width="160" height="40" as="geometry" />
        </mxCell>
      </root>
    </mxGraphModel>
  </diagram>
</mxfile>
